<svg width="206" height="34" viewBox="0 0 206 34" fill="none" xmlns="http://www.w3.org/2000/svg">
<path fill-rule="evenodd" clip-rule="evenodd" d="M20.8241 0.836426C17.5381 0.836426 14.8743 3.50023 14.8743 6.78616C14.8743 10.0721 17.5381 12.7359 20.8241 12.7359C24.1102 12.7359 26.7738 10.0721 26.7738 6.78616C26.7738 3.50023 24.1102 0.836426 20.8241 0.836426ZM9.19101 12.4113C15.3843 12.4113 20.405 17.432 20.405 23.6252V32.8165H14.8272V23.6252C14.8272 22.9655 14.7139 22.3326 14.5057 21.7444L6.31256 29.9375L2.3684 25.9932L10.2695 18.0922C9.92044 18.0246 9.55985 17.9891 9.19101 17.9891H0V12.4113H9.19101ZM32.596 12.4113C26.4027 12.4113 21.3819 17.432 21.3819 23.6252V32.8165H26.9597V23.6252C26.9597 23.1087 27.0293 22.6082 27.1594 22.133L35.73 30.7036L39.6743 26.7592L31.1037 18.1888C31.579 18.0586 32.0795 17.9891 32.596 17.9891H41.7869V12.4113H32.596Z" fill="#0050FF"/>
<path d="M50.7115 33.1371V1.07617H59.7915L69.5268 28.5502H70.2289V1.07617H75.4241V33.1371H66.5315L56.5619 5.61619H55.9067V33.1371H50.7115Z" fill="#0C284F"/>
<path d="M96.2374 28.9248L97.5478 28.7846L97.6415 32.5757C94.0843 33.2934 90.9328 33.6522 88.187 33.6522C84.7235 33.6522 82.2272 32.7003 80.6985 30.7971C79.2007 28.8935 78.4517 25.8514 78.4517 21.6702C78.4517 13.3702 81.8371 9.22021 88.6083 9.22021C95.1608 9.22021 98.4373 12.7929 98.4373 19.9384L98.1097 23.589H83.6001C83.6313 25.5238 84.0527 26.9435 84.8641 27.8482C85.6751 28.7534 87.1885 29.2055 89.4041 29.2055C91.6192 29.2055 93.8973 29.1122 96.2374 28.9248ZM93.4291 19.6577C93.4291 17.3486 93.0546 15.7416 92.3057 14.8367C91.5884 13.9006 90.3557 13.4326 88.6083 13.4326C86.8609 13.4326 85.5817 13.9162 84.7704 14.8835C83.9902 15.8508 83.5845 17.4422 83.5536 19.6577H93.4291Z" fill="#0C284F"/>
<path d="M113.593 14.0882H107.134V24.3851C107.134 26.2886 107.275 27.5522 107.555 28.1762C107.836 28.8002 108.554 29.1125 109.708 29.1125L113.546 28.972L113.78 33.0438C111.69 33.4495 110.098 33.6525 109.006 33.6525C106.354 33.6525 104.529 33.0438 103.53 31.8271C102.563 30.61 102.079 28.3167 102.079 24.947V14.0882H99.0836V9.73537H102.079V2.94873H107.134V9.73537H113.593V14.0882Z" fill="#0C284F"/>
<path d="M113.612 9.73535H118.62L122.317 28.7849H123.253L127.7 10.2034H132.942L137.388 28.7849H138.324L141.975 9.73535H147.03L142.069 33.1375H133.972L130.321 17.0836L126.67 33.1375H118.573L113.612 9.73535Z" fill="#0C284F"/>
<path d="M150.287 12.2625C151.909 10.2343 154.592 9.22021 158.337 9.22021C162.081 9.22021 164.749 10.2343 166.341 12.2625C167.963 14.2907 168.774 17.3329 168.774 21.3894C168.774 25.4457 167.994 28.5035 166.434 30.5628C164.874 32.6225 162.175 33.6522 158.337 33.6522C154.499 33.6522 151.8 32.6225 150.24 30.5628C148.679 28.5035 147.9 25.4457 147.9 21.3894C147.9 17.3329 148.695 14.2907 150.287 12.2625ZM154.125 27.4738C154.842 28.7221 156.246 29.3461 158.337 29.3461C160.428 29.3461 161.832 28.7221 162.549 27.4738C163.267 26.2258 163.626 24.1821 163.626 21.3426C163.626 18.5031 163.236 16.4905 162.456 15.3047C161.707 14.119 160.334 13.5262 158.337 13.5262C156.34 13.5262 154.951 14.119 154.171 15.3047C153.423 16.4905 153.048 18.5031 153.048 21.3426C153.048 24.1821 153.407 26.2258 154.125 27.4738Z" fill="#0C284F"/>
<path d="M171.502 33.1372V9.73505H176.557V12.5433C179.209 10.8272 181.861 9.71944 184.513 9.22021V14.3219C181.83 14.8523 179.536 15.5388 177.633 16.3813L176.603 16.8025V33.1372H171.502Z" fill="#0C284F"/>
<path d="M191.175 33.1374H186.073V0H191.175V19.1429L194.077 18.8622L199.6 9.7353H205.31L198.57 20.6876L205.684 33.1374H199.927L194.217 23.2616L191.175 23.5892V33.1374Z" fill="#0C284F"/>
</svg>
